<?xml version="1.0" encoding="UTF-8" standalone="no"?>
<svg
   xmlns:dc="http://purl.org/dc/elements/1.1/"
   xmlns:cc="http://creativecommons.org/ns#"
   xmlns:rdf="http://www.w3.org/1999/02/22-rdf-syntax-ns#"
   xmlns:svg="http://www.w3.org/2000/svg"
   xmlns="http://www.w3.org/2000/svg"
   xmlns:sodipodi="http://sodipodi.sourceforge.net/DTD/sodipodi-0.dtd"
   xmlns:inkscape="http://www.inkscape.org/namespaces/inkscape"
   version="1.1"
   id="svg2"
   xml:space="preserve"
   width="261.33334"
   height="308"
   viewBox="0 0 261.33334 308"
   sodipodi:docname="РГСУ"><metadata
     id="metadata8"><rdf:RDF><cc:Work
         rdf:about=""><dc:format>image/svg+xml</dc:format><dc:type
           rdf:resource="http://purl.org/dc/dcmitype/StillImage" /></cc:Work></rdf:RDF></metadata><defs
     id="defs6" /><sodipodi:namedview
     pagecolor="#ffffff"
     bordercolor="#666666"
     borderopacity="1"
     objecttolerance="10"
     gridtolerance="10"
     guidetolerance="10"
     inkscape:pageopacity="0"
     inkscape:pageshadow="2"
     inkscape:window-width="640"
     inkscape:window-height="480"
     id="namedview4" /><g
     id="g10"
     inkscape:groupmode="layer"
     inkscape:label="ink_ext_XXXXXX"
     transform="matrix(1.3333333,0,0,-1.3333333,0,308)"><g
       id="g12"
       transform="scale(0.1)"><path
         d="m 921.73,1629.2 c -84.828,0 -153.593,-68.77 -153.593,-153.61 0,-84.82 68.765,-153.59 153.593,-153.59 84.83,0 153.59,68.76 153.59,153.59 0,84.84 -68.76,153.6 -153.59,153.6 z m -130.804,479.18 c 116.14,0 210.304,-94.16 210.304,-210.31 0,-90.12 -56.691,-166.98 -136.359,-196.92 -8.078,-2.03 -16,-4.47 -23.726,-7.33 -16.086,-3.94 -32.911,-6.05 -50.219,-6.05 -116.153,0 -210.313,94.16 -210.313,210.3 0,116.15 94.157,210.31 210.313,210.31 z m 353.614,-306.29 0.05,0.18 0.02,0.05 c 8.05,-0.93 16.21,-1.42 24.52,-1.42 43.42,0 83.78,13.16 117.3,35.73 55.92,37.79 92.7,101.79 92.7,174.38 0,116.14 -94.15,210.3 -210.3,210.3 -41.13,0 -79.51,-11.81 -111.91,-32.22 l -0.37,-0.23 c -0.64,-0.4 -1.26,-0.82 -1.9,-1.23 -28.11,-18.27 -51.58,-43.09 -68.263,-72.29 59.423,-53.5 96.803,-131.01 96.803,-217.27 0,-25.78 -3.34,-50.78 -9.62,-74.6 21.75,-11.07 45.68,-18.47 70.97,-21.38 z M 536.676,1595.01 c -17.926,-27.09 -33.024,-55.13 -42.84,-86.2 -9.941,-31.46 -13.856,-63.91 -15.418,-96.76 -2.238,-47.14 -0.227,-95.41 1.668,-142.53 0.855,-21.35 0.633,-43.29 0.805,-64.67 0.32,-39.14 0.574,-78.27 0.839,-117.4 0.266,-38.59 0.524,-77.17 0.868,-115.755 0.152,-17.105 0.043,-160.066 0.488,-221.75 h -80.789 c -0.453,63.91 -0.359,203.442 -0.52,221.032 -0.347,38.633 -0.605,77.283 -0.867,115.913 -0.269,39.11 -0.523,78.2 -0.84,117.3 -0.168,20.5 0.078,41.61 -0.746,62.07 -3.453,85.86 -8.738,184.08 17.446,266.91 12.117,38.35 30.371,73.01 52.515,106.46 23.832,36 51.11,62.11 80.352,93.34 l -1,1.38 0.097,0.1 c -31.613,46.68 -50.074,103 -50.074,163.62 0,161.41 130.848,292.26 292.266,292.26 45.594,0.01 88.738,-10.44 127.195,-29.06 22.906,38.13 54.254,70.6 91.469,94.83 1.03,0.67 2.04,1.33 3.07,1.98 1.14,0.71 2.27,1.42 3.39,2.12 l 0.45,0.28 c 44.42,27.25 96.68,42.98 152.63,42.98 161.4,0 292.25,-130.85 292.25,-292.26 0,-88.39 -39.24,-167.62 -101.25,-221.21 l 6.05,-5.9 c 46.16,-45.15 86.48,-82.65 122.59,-137.2 22.14,-33.43 40.39,-68.11 52.52,-106.44 26.17,-82.83 20.89,-181.06 17.42,-266.92 -0.81,-20.46 -0.57,-41.57 -0.73,-62.07 -0.32,-39.1 -0.57,-78.2 -0.84,-117.29 -0.26,-38.65 -0.51,-77.28 -0.87,-115.928 -0.19,-21.711 -0.01,-193.676 -0.93,-215.332 l -0.56,-12.965 h -80.9 l 0.71,16.426 c 0.88,20.738 0.67,191.824 0.87,212.594 0.34,38.585 0.6,77.175 0.86,115.745 0.27,39.14 0.52,78.27 0.83,117.41 0.18,21.38 -0.05,43.32 0.81,64.67 1.91,47.13 3.91,95.4 1.67,142.53 -1.56,32.85 -5.48,65.31 -15.41,96.77 -9.82,31.07 -24.91,59.11 -42.85,86.2 -32.36,48.87 -70.21,83.43 -111.71,124.01 -6.42,6.28 -12.86,12.57 -19.28,18.85 -37.02,-16.94 -78.18,-26.4 -121.55,-26.4 -45.59,0 -88.74,10.45 -127.2,29.07 -11.62,-19.36 -25.42,-37.26 -41.08,-53.36 89.66,-32.29 153.75,-118.09 153.75,-218.87 0,-67.02 -28.36,-127.42 -73.73,-169.86 22.03,-23.25 42.59,-47.59 61.95,-76.84 5.17,-7.8 10.12,-15.68 14.84,-23.65 h 0.03 c 0.57,-1 1.16,-1.99 1.73,-3 14.71,-25.26 26.97,-51.53 35.92,-79.79 0.88,-2.79 1.72,-5.6 2.53,-8.43 9.46,-32.89 11.99,-59.37 12.51,-93.63 0.15,-9.17 0.09,-18.75 -0.06,-28.995 l -3.76,-241.813 h -81.32 c 0,78.633 3.94,166.383 2.15,244.031 -1.3,56.517 -8.89,119.147 -50.87,188.997 -0.36,0.56 -0.73,1.12 -1.1,1.67 -19.35,29.24 -40.68,53.36 -63.57,76.7 l -0.01,0.03 c -27.626,-11.59 -57.97,-17.99 -89.81,-17.99 -27.242,0 -53.382,4.69 -77.679,13.3 -8.121,-8.47 -16.031,-17.1 -23.711,-26.1 -17.34,-20.31 -31.16,-38.99 -43.75,-62.22 -34.676,-64.01 -41.313,-121.84 -42.524,-174.387 -1.789,-77.648 2.153,-165.398 2.153,-244.031 H 654.91 l -3.754,241.813 c -0.621,39.495 0.278,68.925 8.258,103.675 9.152,39.85 23.77,74.54 44.367,110.17 5.18,8.89 10.664,17.65 16.407,26.33 16.378,24.74 33.625,45.97 51.89,66.01 -50.695,42.66 -82.922,106.57 -82.922,178.01 0,50.77 16.274,97.73 43.875,135.96 -48.402,9.74 -92.476,31.43 -129.008,61.86 -23.976,-24.9 -48.238,-49.53 -67.347,-78.4 v 0"
         style="fill:#1d63a0;fill-opacity:1;fill-rule:evenodd;stroke:none"
         id="path14" /><path
         d="m 1513.2,45.7266 c 33.25,-23.0196 69.06,-39.21879 109.98,-39.21879 75.04,0 113.4,60.53909 137.28,121.07019 l 191.83,491.117 h -88.66 l -111.7,-303.539 c -12.79,-36.664 -25.58,-78.441 -25.58,-78.441 h -1.71 c 0,0 -15.34,41.777 -34.1,79.289 l -146.66,302.691 h -92.93 l 237.89,-471.504 c -16.2,-41.777 -33.25,-67.3512 -68.21,-67.3512 -28.99,0 -54.57,18.7461 -69.07,29.8362 z M 880.543,321.129 c 0,-176.5 121.937,-314.62119 308.657,-314.62119 106.58,0 181.6,44.33599 232.77,95.48819 l -45.2,60.539 c -48.6,-48.594 -117.66,-78.4334 -185.02,-78.4334 -139.83,0 -224.234,109.9804 -224.234,237.8714 0,127.05 82.694,230.222 222.534,230.222 62.24,0 129.6,-26.445 173.94,-65.66 l 42.63,63.09 c -57.98,55.43 -142.4,79.301 -219.99,79.301 -179.05,0 -306.087,-133.012 -306.087,-307.797 z M 520.742,16.7383 h 84.41 V 545.367 H 852.41 v 73.328 H 520.742 Z M 90.1602,312.59 V 545.367 H 213.793 c 70.77,0 115.957,-43.48 115.957,-115.105 0,-72.465 -45.187,-117.672 -116.809,-117.672 z M 5.75391,16.7383 H 90.1602 V 239.277 H 226.582 c 109.988,0 188.434,76.727 188.434,190.985 0,114.254 -78.446,188.433 -188.434,188.433 H 5.75391 V 16.7383"
         style="fill:#1d63a0;fill-opacity:1;fill-rule:evenodd;stroke:none"
         id="path16" /></g></g></svg>
